<svg xmlns="http://www.w3.org/2000/svg" xmlns:xlink="http://www.w3.org/1999/xlink" width="150.957" height="139.775" viewBox="0 0 150.957 139.775">
  <defs>
    <clipPath id="clip-path">
      <rect id="Rectángulo_34073" data-name="Rectángulo 34073" width="123.067" height="87.919" fill="none"/>
    </clipPath>
    <clipPath id="clip-path-2">
      <rect id="Rectángulo_34072" data-name="Rectángulo 34072" width="123.067" height="87.92" fill="none"/>
    </clipPath>
    <clipPath id="clip-path-3">
      <rect id="Rectángulo_34070" data-name="Rectángulo 34070" width="24.513" height="74.1" fill="none"/>
    </clipPath>
    <clipPath id="clip-path-4">
      <rect id="Rectángulo_34071" data-name="Rectángulo 34071" width="30.767" height="75.836" fill="none"/>
    </clipPath>
  </defs>
  <g id="Grupo_213804" data-name="Grupo 213804" transform="matrix(0.848, -0.53, 0.53, 0.848, 0, 57.216)">
    <g id="Grupo_80813" data-name="Grupo 80813" transform="translate(-4.239 6.784)" clip-path="url(#clip-path)">
      <path id="Trazado_115342" data-name="Trazado 115342" d="M22.715,0V79.379L53.483,87.92V8.54Z" transform="translate(8.051 0)" fill="#e8e8e8"/>
      <path id="Trazado_115343" data-name="Trazado 115343" d="M68.146,0V79.379L98.914,87.92V8.54Z" transform="translate(24.154 0)" fill="#e8e8e8"/>
      <path id="Trazado_115344" data-name="Trazado 115344" d="M76.2,0,45.431,8.54V87.92L76.2,79.379Z" transform="translate(16.103 0)" fill="#c9c7c1"/>
      <path id="Trazado_115345" data-name="Trazado 115345" d="M30.766,0,0,8.54V87.92l30.766-8.541Z" transform="translate(0 0)" fill="#cacaca"/>
      <path id="Trazado_115346" data-name="Trazado 115346" d="M22.715,4.46v67.3L53.483,80.3V13Z" transform="translate(8.051 1.581)" fill="#3fb7c8"/>
      <path id="Trazado_115347" data-name="Trazado 115347" d="M45.431,13V80.3L76.2,71.756V4.46Z" transform="translate(16.103 1.581)" fill="#3fb7c8"/>
      <path id="Trazado_115348" data-name="Trazado 115348" d="M68.236,4.485l-.089-.024V71.755l24.513,6.8V11.265Z" transform="translate(24.154 1.581)" fill="#3fb7c8"/>
      <path id="Trazado_115349" data-name="Trazado 115349" d="M4.617,11.265v67.3l24.513-6.8V4.46Z" transform="translate(1.637 1.581)" fill="#3fb7c8"/>
      <g id="Grupo_80812" data-name="Grupo 80812" transform="translate(0 0)">
        <g id="Grupo_80811" data-name="Grupo 80811" clip-path="url(#clip-path-2)">
          <path id="Trazado_115350" data-name="Trazado 115350" d="M25.261,32.715c.018.079-.321.1-.374.1a.327.327,0,0,0,.069.095c.217,0,.343-.054.3-.2" transform="translate(8.821 11.596)" fill="#fff"/>
          <path id="Trazado_115351" data-name="Trazado 115351" d="M22.97,32.247c-.042,0-.031.012.007.042.009-.027.009-.042-.007-.042" transform="translate(8.132 11.43)" fill="#fff"/>
          <path id="Trazado_115352" data-name="Trazado 115352" d="M20.38,33.426a2.507,2.507,0,0,0,.328.123c-.007-.042-.015-.077-.019-.116-.018-.112-.142-.085-.309-.007" transform="translate(7.224 11.824)" fill="#fff"/>
          <path id="Trazado_115353" data-name="Trazado 115353" d="M18.962,32.561h0" transform="translate(6.716 11.541)" fill="#fff"/>
          <path id="Trazado_115354" data-name="Trazado 115354" d="M10.182,17.508h0" transform="translate(3.603 6.206)" fill="#fff"/>
          <path id="Trazado_115355" data-name="Trazado 115355" d="M37.2,21.382a.306.306,0,0,0,.233-.1c.009-.022-.229-.241-.2-.276-1.61.088.2-1.513-.847-2.094.024.014-1.6,1.3-1.524.706,0,.028-.175-.677.051-.856-.165-.023-.448-.126-.47-.126.466-.264-.8-.544-1.126-.451-1.047-.148-1.176,2.343-2.024,2.74-.893.394-.9,1.239-1.483,1.594-.8.47,0-1.547.047-1.472a7.292,7.292,0,0,0-2.586-.779,2.379,2.379,0,0,0,.265-.646c-.107-.108-.284.051-.4-.042-.215-.161,2.322-1.9,2.423-1.734-.119-.19-.536-.018-.656-.226,1.207.37,1.7-.345,2.736-.7-.356.316-.707.643-1,.9.2-.033,1.69.184,2-.07-.206.161-.565-.891-.758-.891-.068,0-.047.265-.157.3.076-.119.146-.244-.026-.263a.159.159,0,0,0,0-.122c.374-.054.3.321.578.321.152,0-.1-.248-.111-.263.274-.272,1.785-.436,1.415-1.2-.026-.043,1.344.177,1.172-.34.134.165.337.475.53.42.014.184-.379-.053-.36.2.007.081.481.06.536.037,0,.168-.241.263-.234.3.083.4.347-.206.349-.219.042.111.069.049.16.081-.13.458-.8.57-.8.935-.312.176-1.421-.169-1.531.349.112-.553,2.388,1.108,2.854,1.108.3,0-.381-.693-.391-.734.341-.007.624.531.884.531.24,0-.011-.452.127-.509.005,0,.014-.007.022-.008.038.08.031.141.149.141-.168,0,.034-.406.093-.436-.085-.134-.566-.5-.546-.509.066-.157,1.4.309,2.034-.354-.116-.042-1.425-.67-1.425-.687-.02-.142.628-.137.63-.238,0-.038-.237-.072-.291-.091a.218.218,0,0,0,.008-.047c.058.009.2.068.244-.011.119-.233-.29-.16-.366-.127.084-.233-.611-.819-.932-.389-.125-.3-.341-.322-.45-.5.073-.461-.89-.414-.879-.228.038.446.488.057.654.188a7.813,7.813,0,0,1-.989.237c0-.085.345-.325.336-.5-.008-.222-1.693.2-1.763.559-.019.1.252.056.244.141,0-.005-.141.076-.138.076-.676-.135.741-.87.748-.842-.091-.3-2.086.352-2.086.859a3.266,3.266,0,0,1,.589.085c-.065,0-.661-.085-.627.072.065.316,1.514.286,1.514.286l-.123.1A6.407,6.407,0,0,1,32.1,16.2c-.027,0,.111-.108.1-.137a6.445,6.445,0,0,1-.57.386.424.424,0,0,0-.121-.186c-.007.008.787-.605.225-.605a.381.381,0,0,0-.156.056c.016-.259-.55-.116-.57-.141.2-.14.746-.5.214-.757.3-.074,1.625-.349,1.777-.635-.065.122-2.685.511-2.966,1.191-.118.255.382.211.432.221-.011.053.049.066.081.081-.175.069-1.016.442-1.016.7-.012.015-.146.047-.133.051-.031-.008-.053-.047-.091-.056a2.32,2.32,0,0,1,.336-.288c-.007-.049-.288-.009-.336-.07a4.1,4.1,0,0,0,.875-.341c.1-.211-1.415-.1-1.346.176.033.127.282-.022.345.049a1.981,1.981,0,0,1-1.948.214c.531-.168-.945-.478-1.086-.085.007-.018.206.36-.069.527a.364.364,0,0,1-.118-.038.216.216,0,0,0-.223-.288c.024-.03.24-.1.238-.115-.007-.043-1.476.28-1.711.1,0-.154.666-.018.551-.24-.306-.553-1.877-.23-2.331-.314a.269.269,0,0,1,.073-.033,1.029,1.029,0,0,0,.2-.2c-.047-.237-.8.324-.8.209-.012-.005.112-.325.087-.367a.336.336,0,0,0-.14-.056c.046,0-.508.454-.574.286a.923.923,0,0,0,.111-.072c-.706.34-11.027-.937-10.864.642.012.122.284.643.531.419,0,.36-.68.39-.851.343.037-.024.218-.131.21-.179,0,.039-1.746.211-1.749.4,0,.093.264.093.306.093-.039.005-.374.141-.364.245.027.209,1.04.112,1.5-.008-.983.4-3.6.959-3.163,1.866.145.272.787-.352.924-.358a6.766,6.766,0,0,0-.945.765A5.651,5.651,0,0,0,8.286,19.5c-.29.265-.03.19.21.118-.256.149-1.338.551-2.355.925h0a1.272,1.272,0,0,1,.223.2c1.174-.344,2.442-.729,2.722-.823-.051.042-.721.272-.589.427-.02-.022.158.1.125.1a4.355,4.355,0,0,0,1.291-.626c.03-.106-.037-.024,0-.106.014-.024-.74.176-.8.2.21-.119.845-.245.542-.463.618-.179,1.025-.549,1.548-.656-.192.149-.9.482-.952.628.054-.169,1.392-.158,2.013-.364a.059.059,0,0,0,0,.06c.03.062.322-.163.389-.2,0,.234.062.08.1.359,2.407-.609.9,1.228,1.453,2,.188.272.492-.478.553-.628a9,9,0,0,0,.005,2.187c-.126-.038-.5-.321-.544-.064-.152.653.635.782.145,1.759-.772,1.177-2.387,3.065-1.573,4.356.44.685,1.778,3.092.958,3.092.414,0,.821,2.294,1.3,2.335H15.1c.27,0-.989-3.7-.712-3.7.875,0,.11.87.383,1.25,1.065,1.442,1.547,4.13,3.607,5,1.162.452,2.936,1.373,4.185,1.373.505,0,.731,2.328,1.6,2.328.015,0,.244-.425.448-.114,0,.194-.145.088-.172.14s.069.181.089.181a7.1,7.1,0,0,0,.9-.512,3.036,3.036,0,0,1-1.466-1.494c-.769-1.8.63-.818-1.677-1.617A9.305,9.305,0,0,0,23,35.5c.811-1.577-1.38-.287-1.242.154.21.643-1.852.433-2.239-.735.5-.639,1.633-5.362,3.26-3.389a.132.132,0,0,1,.133.066c.11-.207.675-.515.746-.592.07-.52,1.46,1.2,1.51,1.268a4.977,4.977,0,0,0,.463,1.132c.771,0,.133-3.314,1.632-3.639.8-.171.918-.8,1.181-1,.116-.084.02-1.335.5-1.382-.037.08-.394.879-.312.981.165.181.5-.871.505-.948a2.35,2.35,0,0,1,.083.229c-.024-.111.546-.679.947-.9-.018,0-.03,0-.034-.011a.8.8,0,0,0,.142-.046c-.033.02-.069.034-.108.057.085-.008.312-.1.343-.053a.125.125,0,0,0-.13-.033c.41-.137.524-.213.549-.022-.005-.076.547-.079.442-.322-.061-.14-.13.047-.228.1,0-.1-.088-.186-.087-.234.053-.328.794-.614,1.073-.859,0,.1-.129.08-.118.173-.005-.066,1.567-.63,1.7-.737-.033.064-.24.153-.238.177.007.106.3-.007.328-.024,0,.3-1.135.114-.88.758.093.244,2.878-1.407,2.259-1.407-.676,0-.833.172-.864.256a1.7,1.7,0,0,0-.241-.605,3.411,3.411,0,0,1-.688-.027.028.028,0,0,1,0-.019c.421.093.589-.237.907-.326.206-.616-2.175.577-2.457.746,1.575-1.219,2.961-.864,4.527-1.644,1.112,0,1.281-1.135.825-1.257m-5.72-5.6a.793.793,0,0,0-.27.314c-.175-.309.108-.287.27-.314m-1.237,1.154a.9.9,0,0,1,.626.181c-.237.011-.536-.192-.627-.181Z" transform="translate(2.177 4.993)" fill="#fff"/>
          <path id="Trazado_115356" data-name="Trazado 115356" d="M28.871,19.508a.7.7,0,0,0-.127.074.244.244,0,0,1,.127-.074" transform="translate(10.188 6.915)" fill="#fff"/>
          <path id="Trazado_115357" data-name="Trazado 115357" d="M28.462,19.661l-.027.011a.187.187,0,0,0,.027-.011" transform="translate(10.079 6.969)" fill="#fff"/>
          <path id="Trazado_115358" data-name="Trazado 115358" d="M27.495,16.832c-.218.176.121-.169,0,0" transform="translate(9.719 5.949)" fill="#fff"/>
          <path id="Trazado_115359" data-name="Trazado 115359" d="M22.986,15.669c.264.116-.087.033,0,0" transform="translate(8.142 5.554)" fill="#fff"/>
          <path id="Trazado_115360" data-name="Trazado 115360" d="M18.445,26.774c.164-.191-.037.049,0,0" transform="translate(6.536 9.464)" fill="#fff"/>
          <path id="Trazado_115361" data-name="Trazado 115361" d="M9.979,16.058h0" transform="translate(3.537 5.692)" fill="#fff"/>
          <path id="Trazado_115362" data-name="Trazado 115362" d="M9.8,16.056a.221.221,0,0,0-.049,0,.215.215,0,0,1,.049,0" transform="translate(3.455 5.69)" fill="#fff"/>
          <path id="Trazado_115363" data-name="Trazado 115363" d="M10.244,17.509c-.628.118.129-.028,0,0" transform="translate(3.541 6.205)" fill="#fff"/>
          <path id="Trazado_115364" data-name="Trazado 115364" d="M12.249,18.869c.007,0-.009.015-.012.02.061-.106.18-.23.012-.02" transform="translate(4.337 6.648)" fill="#fff"/>
          <path id="Trazado_115365" data-name="Trazado 115365" d="M12.593,19.221c-.026.047,0,0,0,0" transform="translate(4.459 6.813)" fill="#fff"/>
          <path id="Trazado_115366" data-name="Trazado 115366" d="M19.006,32.567c-.485.336.186-.133,0,0" transform="translate(6.673 11.535)" fill="#fff"/>
          <path id="Trazado_115367" data-name="Trazado 115367" d="M18.635,27.192c-.046-.014-.064-.111-.108-.18-.042.081-.023.146.108.18" transform="translate(6.559 9.575)" fill="#fff"/>
          <path id="Trazado_115368" data-name="Trazado 115368" d="M27.5,17.517,27.5,17.5a.2.2,0,0,0-.112.041c.073.011.129.008.119-.028" transform="translate(9.706 6.205)" fill="#fff"/>
          <path id="Trazado_115369" data-name="Trazado 115369" d="M17.482,15.046c0,.007-.018.026-.045.043.028-.012.049-.028.045-.043" transform="translate(6.18 5.333)" fill="#fff"/>
          <path id="Trazado_115370" data-name="Trazado 115370" d="M33.2,38.488c.009.005.038-.6-.145-.6-.615,0-1.162-.547-1.663.431.019-.378-2.113-5.393-3.309-3.687.18-.748-1.055-1.123-1.413-1.517A9.041,9.041,0,0,1,24,32.324c-.07.146-.623.653-.6.557,0-.1-.083-.16-.083-.245s.462-.131.31-.345c-.55-.754-2.332,1.781-2.209,1.781a2.278,2.278,0,0,1-.593-.093c.1.584.4,1.86.354,1.86-1.05,0-1.307,2.949-1.008,2.561-.244,1.876.624,2.792,1.612,4.846.608,1.266,3.742,1.984,2.588,4.023-.423.829.069,7.12.8,7.494-.186.039-.106.687.108.687s.049-.589.07-.772c.005.011.076,0,.089,0a2.348,2.348,0,0,1,.206,1.235c-.106,0-.144-.282-.27-.282.112,0-.051,1.273.035,1.273-.049,0,.539-.1.539-.256.062.088.2.36.137.462-.794.776.856,2,.861,1.99a.52.52,0,0,1,.015.107c-.13-.022-.232-.133-.232.068a8.412,8.412,0,0,0,2.981,1.195c0-.005,0-.007.008-.005-.389,0,.367-.486.393-.534-1.953-.5-2.453-4.032-1.9-4.811.138-.3.271.339.452.085.115-.169-.968-.471-.779-.787.141-.039,1.636-.966.742-.867,2.638-.689.865-.41.88-1.873,0,1.208,1.625-.382,2.2-1.223,0,.043,0,.07.039.07.393,0,.972-3.247,2.04-3.564.983-.352,3.585-6.778,2.724-7.475s-2.5-.675-3.318-1m-9.645-5.017c-.413.555.538-.756,0,0m2.285,23c-.214-.2,0-.288,0,0" transform="translate(7.107 11.396)" fill="#fff"/>
          <path id="Trazado_115371" data-name="Trazado 115371" d="M22.641,33.127h0" transform="translate(8.019 11.739)" fill="#fff"/>
          <path id="Trazado_115372" data-name="Trazado 115372" d="M29.029,16.6c.008.016.018.028.016.037.007-.037,0-.043-.016-.037" transform="translate(10.289 5.882)" fill="#fff"/>
          <path id="Trazado_115373" data-name="Trazado 115373" d="M41.175,16.163a7.609,7.609,0,0,0-1.1-.049c.54-.02.576,0,1.3,0,.312,0-.148-.465-.466-.763.148.092.788.271.672-.152-.026-.088-.3-.074-.364-.134.364-.127.488.037.822-.172-.015.031-.122-.033-.145-.053A.912.912,0,0,0,42.5,14.7c.093-.087-.253-.106-.293-.141.568-.252.035-.348-.008-.543-.069-.272.389,0,.5.14a1.071,1.071,0,0,1,.241-.29c-.05-.287-.348.023-.47-.171.027,0,.333.1.326-.016,0-.408-.631.007-.675,0,.18-.8,2.578-.52,2.671-1.136a7.889,7.889,0,0,1-1.883-.16c-.042.027-.032.335-.391.233.348-.317-.627-.073-.668-.154a4.011,4.011,0,0,0,.963-.16c0-.394-2.685-.064-2.741-.077.051-.028.32-.041.32-.14-.043-.352-3.149.4-3.308.169.007,0-.148-.153-.148-.045,0,.313.581.056.631.264-.249.074-1.134-.421-1.338-.141-.074.1.171.141.229.157-.089.016-.817,0-.907.024a13.233,13.233,0,0,0-3.526.421c.026.134.474-.051.5.043.13.432-2.431.2-2.454.58a4.142,4.142,0,0,0,.595.213c-.172,0-.521-.1-.563.085-.135.773,2.729-.047,2.755.455,0,.268-.107-.018.142.279-.3.3-.118.558.08.469-.008.074-.669.5-.163.259-.042.042-.362.309-.29.383.2.2.488-.014.642-.129-.051.226.087.389.374.33a.5.5,0,0,1-.037.107c-.416.069-.447-.229-.459-.24-.167-.192-.68.513-.716.576-.092.171.359.149.635.091-.431.349-1.082.882-.692.9-.8,1.006.383,1.712.952,2.28.186.188,4.517-2.313,4.911-2.9.348.324,1.181.179,1.661-.005.177-.058,1.268-.553,1.268-.553m-.1-1.05c-.05.024-.274.085-.228.183-.114-.1-.2-.177-.2-.181a.958.958,0,0,1,.431,0m-10.3-1.345c.034-.022.144-.011,0,0m2.5,2.506c-.065-.038-.234-.1-.275-.138a2.173,2.173,0,0,1,.409,0c.027,0-.034.057-.134.137" transform="translate(10.662 4.251)" fill="#fff"/>
          <path id="Trazado_115374" data-name="Trazado 115374" d="M39.4,13.657c.043,0,.035-.022,0-.064-.019.042-.027.064,0,.064" transform="translate(13.961 4.818)" fill="#fff"/>
          <path id="Trazado_115375" data-name="Trazado 115375" d="M40.758,19.2c.043.064.23-.245.294-.275,0,.093-.188.276-.112.381.085-.03.171-.2.247-.192-.008.127-.374.268-.333.356.079.126.24-.141.268-.142-.014.054-.133.249-.089.326s.306-.236.317-.236c.028.02-.131.307-.126.358.011.093.439-.014.507-.043-.031.191-.52.871-.52.681,0,.171.085.152.256.2-.051.091-.394.336-.372.391.034.115.57.134.721.108-.042.035-1.029.383-.966.543-.005-.023,2.4-.263,2.355-.5-.009-.037-.237-.072-.247-.072.146-.244.677-.8-.112-.566a9.857,9.857,0,0,1-.486-1.837c-.084-.256-.578.11-.675-.033.026.033.656-.543.527-.627-.005,0-.126-.054-.126-.054a10.124,10.124,0,0,0-.83.618.686.686,0,0,1-.458.172c.062.133-.061.412-.038.446" transform="translate(14.445 6.367)" fill="#fff"/>
          <path id="Trazado_115376" data-name="Trazado 115376" d="M73.69,24.471h-.02c.037.015.037.011.02,0" transform="translate(26.112 8.674)" fill="#fff"/>
          <path id="Trazado_115377" data-name="Trazado 115377" d="M67.735,30.918c.015-.018-.06.062,0,0" transform="translate(24 10.958)" fill="#fff"/>
          <path id="Trazado_115378" data-name="Trazado 115378" d="M76.733,21.827c.037.043.062.064.069.051s-.024-.026-.069-.051" transform="translate(27.197 7.737)" fill="#fff"/>
          <path id="Trazado_115379" data-name="Trazado 115379" d="M56.725,14.4c-.008.015,0,.039.022.064.014-.091.008-.14-.022-.064" transform="translate(20.105 5.09)" fill="#fff"/>
          <path id="Trazado_115380" data-name="Trazado 115380" d="M79.072,19.783l.018.022c0-.009,0-.018-.018-.022" transform="translate(28.026 7.012)" fill="#fff"/>
          <path id="Trazado_115381" data-name="Trazado 115381" d="M84.271,34.817c.009.276,3.539-2.128,2.472-3.4.08.085-.6-.005-.593.005.784-.133-.173-1.079-.463-1.35-1.245-1.121.122-.757.122-1.4a.984.984,0,0,0-.038-.213c-.076-.08-2.28-.1-1.99-.611a.645.645,0,0,1,.042-.1c.425,0,.685-.844,1.035-.7.14.039.081.508.091.742a9,9,0,0,1,1.663.605c.878.015.349.661.822,1.406-.012-.019,1.418-.309.874-.89-.339-.349-1.746-2.411-.844-2.411,2.06,0,1.292-2.544.975-3.987.882.153,1.25,2.454,1.917,2.454.106,0-.019-.223-.015-.276a1.359,1.359,0,0,1,.4.123c-.213-.219-.856-1.127-.917-1.214.133-.042.657.23.662.21a25.943,25.943,0,0,0-2.452-2.311h-.02c-.2.054.261.352.3.39-.2.253.084.016.057.53-.562-.538-1.315-1.042-1.814-.8-.005-.187-.371-.523-.42-.378-.018.092.3.209.251.3s-.349-.286-.366-.286c0,0-.054.234-.458.11.689-.977,2.136-2.924,3.484-1.781a.543.543,0,0,0-.223.095c0,.263,1.205-.053,1.207-.066a1.089,1.089,0,0,0-.035-.54,1.472,1.472,0,0,0,.421-.391c-.173.214,1.094.642,1.008.049-.019-.119-.291-.2-.368-.306a1.584,1.584,0,0,1,.727.6c-.05-.007-.619,1.063-.7,1.166.038-.033,2.265,3.144,2.22,3.068.163.257.432-.819.209-1.172a1.477,1.477,0,0,1,.4-.037c-.081-.095-.431-.317-.391-.4.015-.027.482-.574.222-.768.012-.02.012-.042-.012-.089-.187-.366-1.724-.841-1.486-1.346.26-.458,1.361-.02,1.934-.02-.6,0,1.652-1.575,1.447-.937.173-.49-1.364-.595-1.529-.867.149.031.546.065.546-.2,0-.092-.455-.36-.419-.36s.119.111.119-.007a6.46,6.46,0,0,0,2.69.627c.019-.054-.41-.333-.455-.367.06-.042.333.038.29-.111-.188-.092-1.663-.874-1.85-.538a1.146,1.146,0,0,0,.293.211,36.491,36.491,0,0,0-5.911-1.28,4.977,4.977,0,0,0,.7.451c-.314.473-7.095-1.074-8.415-1.161,0-.064.2-.026.223-.053v-.033a8.06,8.06,0,0,0-1.464-.1c-.009.037.134.092.161.1-.053.009-.374-.011-.39.049.018-.107.536.312.543.318-.55.043-1.161-.169-1.986-.169-.091,0,.072.349.092.433-.283-.089-3-1.617-3.2-1-.033.093.287.217.336.29-.987-.493-2.8.121-3.4-.371.072-.016.379-.016.379-.141,0-.288-.833.177-.83.191,0,.11.223.053.287.046-.064.188-.993.043-.993.283,0-.332,1.307-.521,1.246-.81-.16-.907-3.76-.466-3.61-.42-.643-.126-.891.219-1.537.081-.173.037-1.8.4-1.8.588,0,.054.565.087.649.122-.278.221-1.447-.061-1.487.279-.015.2,1,.4,1,.479a3.617,3.617,0,0,1-1.276-.241c.046-.024.251-.012.268-.053.135-.324-.692.23-.616.2.172.074.286-.02.447.061-.081.035-.5-.081-.532.058a.089.089,0,0,0,0,.038,1.662,1.662,0,0,1-.516-.312c-.022.177-.1.519-.152.463.008.014.018.034.028.05-.609-.8-1.559-1.342-1.658.037,0-.012.4.309.416.32-.268.531.752.035.588.637a18.02,18.02,0,0,0-3.033-.669,7.877,7.877,0,0,0,.875.379c.027.53-.5-.046-.608-.123a4.1,4.1,0,0,1-1.173.408c-.108-.248.125-.074.125-.233s-2.259,1.059-2.393.538c.1-.165.324.011.414-.133-.248-.118-.8-.2-.947-.307-.073.085.446.738.459.665-.022.083-.1.163-.061.253-.871-.626-.872.382-.922.505-.214.321-.9-.409-1.1-.073-.068.1.466.271.515.329-.618.309-1.295-.741-1.639-1.01.512-.164,3.52.489,1.682-.479a5.855,5.855,0,0,0-2.759-.595c.033-.015.394-.122.386-.177-.068-.333-.79-.046-.829-.058,0-.005.148-.184.146-.187-.206-.232-.389.127-.515.181a.42.42,0,0,1-.037-.053c0,.07-.07.153-.359.171.022-.064.271-.26.207-.335a6.04,6.04,0,0,1-1.119.171c.039.026.187.084.213.146a.662.662,0,0,0-.656.2c.046-.565-.4.035-.481.226-.2-.382-.226-.037-.32.111-.138-.429-.669.1-1.036.248a.218.218,0,0,0,0,.114c.053.069.5-.18.6-.2.035,1.17-2.21,1.632-2.232,2.026.015-.163-1.264.983-.511,1.239-.264.486,1.247.889,1.524.027.442,1.334.249,1.05.167,1.805-.005.05.146.111.181.111,1.107,0,1.475-1.333,2.168-2.028.049-.043-1.047-.852-.268-1.2.387-.2,1.032-.454,1.453-.618-.462.293-1.017.913-.578,1.361s1.705.225,2.5.32c-.42.1-2.266.149-2.319.647.007-.03.114.2.095.2.088-.012.826-.316.712-.18-.024.158.038.31-.005.45-.771.24-2.609,1.917-4,1.226-.44.316.018-1.341-.079-1.448-.689-.721-.538,1.419-.535,1.434a31.994,31.994,0,0,1-3.461,1.671c.673,0-.893.768-1.014.605.116.459,2.548,1.953-.287,1.953-1.7,0-1.419,1.265-1.449,2.779.572.127,3.573.439,3.068-.985-.3-.863,3.481-2.875,3.481-1.47,0,.076,1.621.769,1.628,1.031.049.844-.807.847-.807.974,0,1.617,1.988-.695,1.648-1,.133.068.28.233.36.24.244-.275-2.084-1.437-2.084-2.011,0-.753.913.074.913.158,0,.156,2.924,3.126,3.2,2.774a2.262,2.262,0,0,1,.171-.229c-.131-.091-.939-.981-.775-.981.141,0,1.325-.393,1.36.014.009.069-.291.425-.252.526.149.34.34-.172.337-.172a1.365,1.365,0,0,1-.279.561,2.407,2.407,0,0,0,.458.1c.005.061-.314.161.11.325-.054,0-.225.284-.219.325.209-.145.2-.175.4-.242,0,.077-.165.034-.2.156a1.051,1.051,0,0,1,.247.272c.077-.091.118-.291.169-.328,0,.313,2.515.28,2.515-.031.443,2.308-1.275,2.567-3.228,2.212-.282-.053-3.527-.362-2.609.429a8.427,8.427,0,0,0-2.7-1.327c-.612-.168.3-1.028.033-1.424-.675-1.062-6.268,1.219-6.871,1.613a16.6,16.6,0,0,0-2.95,4.2c-.153.444-.737,3.8-.4,4.187.61.665,1.2,1.774,2,2.625,1.387,1.824,3.508.4,5.208.19.436-.051,3.347,1.1,2.381,2.022-.554.614,1.036,3.6,1.33,4.394.67,1.742-1.131,3.047.154,4.979.9,1.3.894,4,1.623,5.14.558.861,1.833.2,2.8.2,2.213,0,2.881-4.514,3.412-5.355-.192-1.135,2.048-2.1,2.052-4.034.018-.329-1.157-3.7.176-3.7,1.26,0,3.826-4.724,3.723-5.6-.024-.234-2.58-.2-3.117-.2.689-.588-4.268-6.027-3.975-7.636.1.187.4.88.661.88.095,0,.148-.488.172-.607.058.841,4.143,6.6,3.936,6.829,1.335-1.5,5.392-1.529,5.288-3.993,0,.134-1.877-1.568-1.5-1.568-.47,0-.745.9-1.438.9-.456,0,.085-.947-.414-.947-.115,0-.08.371-.1.391.037-.008-1.823-2.17-.637-1.992.23.026,1.606,2.047,2.193,1.384.469-.57,4.678,1.774,5.576,1.585-.111.21-.5.168-.536.238-.068.172.864,1.006,1.172.493.206,1.612,2.873,6.7,3.13,4.974.039-.356-.177-2.68.451-2.924a6.209,6.209,0,0,0,2.181-2.438c0,.359.635.165.67-.1.111.293.481.039.481-.106.263,1.042,1.67,3.034,2.177,2.507.829-.884,1.075,3.713.9,3.713.057,0,.088-.219.1-.256.047.068.183.421.2.442,0,0,1.663,3.191,2.17,2.656.226-.23-3.337-5.307-1.784-5.307.44,0,1.9,2.075,1.843,2.1,2.778-1.586-1.548-5.448,1.1-5.448a4.811,4.811,0,0,0,.061.576c-.169-.356,1.031-.585,1.13-.8M64.73,15.276a.44.44,0,0,1-.134-.015c.191.014.335-.007.134.015m-1.178,1.674c.707,0,.568-.722.153-1.382a1.856,1.856,0,0,0,1.131.463c-.014,0-.435.043-.466.122-.05.107.36,1.441-.818.8m1.331-.914c.3.039.544.494.573.494-.169,0-.348-.4-.573-.494m17.081-.983c.379-.171.172-.068,0,0" transform="translate(13.191 4.739)" fill="#fff"/>
          <path id="Trazado_115382" data-name="Trazado 115382" d="M72.5,24.157a.277.277,0,0,1-.027-.133c-.07,0-.075.042.027.133" transform="translate(25.668 8.516)" fill="#fff"/>
          <path id="Trazado_115383" data-name="Trazado 115383" d="M47.746,14.946c0-.074-.081-.127,0,0" transform="translate(16.911 5.271)" fill="#fff"/>
          <path id="Trazado_115384" data-name="Trazado 115384" d="M48.531,24.284c.007,0,.014,0,.026-.012-.022,0-.033,0-.026.012" transform="translate(17.201 8.603)" fill="#fff"/>
          <path id="Trazado_115385" data-name="Trazado 115385" d="M49.161,24.961a.1.1,0,0,1-.108.049c.107.031.127,0,.108-.049" transform="translate(17.386 8.848)" fill="#fff"/>
          <path id="Trazado_115386" data-name="Trazado 115386" d="M40.994,21.219a.113.113,0,0,1,0-.064.062.062,0,0,0,0,.064" transform="translate(14.527 7.499)" fill="#fff"/>
          <path id="Trazado_115387" data-name="Trazado 115387" d="M48.259,24.312c.009.009.018.012.019.009.007-.024,0-.02-.019-.009" transform="translate(17.105 8.615)" fill="#fff"/>
          <path id="Trazado_115388" data-name="Trazado 115388" d="M81.729,37.842h0c.028.011.018.005,0,0" transform="translate(28.968 13.413)" fill="#fff"/>
          <path id="Trazado_115389" data-name="Trazado 115389" d="M83.169,38.764c-.037.064.8-.034.142-.337-.045-.019-.019-.009,0,0-.278-.131-3.836-2.888-4.016-1.549-.057.47-1.325-.907-1.967-.65-.026-.016-.042.079-.061.126.242.14.6.633.967.612-.183.028-.442.038-.493.118.053-.081.324.578.362.578.157,0,.226-.287.3-.391,0,.719,1.253.94,1.253,2.114,0,.444,2.787-.023,2.043-.023,1.048-.7,1.476,1.079,2.58,1.079a.8.8,0,0,0,.213-.229c.009-.279-1.635-.921-1.318-1.448" transform="translate(27.387 12.829)" fill="#fff"/>
          <path id="Trazado_115390" data-name="Trazado 115390" d="M77.275,36.316l-.03-.018c.009.066.02.054.03.018" transform="translate(27.379 12.866)" fill="#fff"/>
          <path id="Trazado_115391" data-name="Trazado 115391" d="M85.183,44.183a3.564,3.564,0,0,1-.08-.874c-.018-.371-1.489-2.238-1.436-2.392-.066-.13-.154-1.708-.255-1.708-.336,0-.982,3.4-1.383,3-.45-.439-1.084-.642-1.467-1.17-.135-.215.868-.935.689-1.092a2.15,2.15,0,0,1-.137-.211c-.209,0-.065.287-.2.287-.027-.008-.083-.26-.035-.26-.574,0-.985-.3-1.426-.3-.158,0,.291.321.219.417.012-.011-1.992.993-1.18,1.054-.149.293-.406-.114-.547.207-.1-1.352-1.394.248-1.507.535-.1,0-.19-.138-.251-.138-.213,0,.037.4.031.447-.221-.073-.051-.015-.156.191-.069-.121-.035-.379-.1-.452a10.6,10.6,0,0,1-3.6,2.507c0-.037.068-.307-.012-.3-.126.557-.085,1.323-.2,1.776-.016.037-.074.069-.108.089-.011-.046-.038-.222-.1-.237-.252-.054.087.354-.076.354-.027-.058-.088-.466-.184-.466a10.19,10.19,0,0,1,.234,2.85c-.413,1.476-.3.948,1.212.753,1.345-.2,2.5-.979,3.936-.979a1.265,1.265,0,0,1,.944.355c.249,1.3.466,2.531,1.763,3.351a.985.985,0,0,0,1.205-.154c.137-.164.267-.326.4-.494.99-.009,4.955-4.494,4.816-5.915.041.417-1.008-1.579-1.008-1.021" transform="translate(25.407 13.898)" fill="#fff"/>
          <g id="Grupo_80807" data-name="Grupo 80807" transform="translate(6.254 6.042)" style="mix-blend-mode: multiply;isolation: isolate">
            <g id="Grupo_80806" data-name="Grupo 80806">
              <g id="Grupo_80805" data-name="Grupo 80805" clip-path="url(#clip-path-3)">
                <path id="Trazado_115392" data-name="Trazado 115392" d="M4.617,11.265v67.3l24.513-6.8V4.46Z" transform="translate(-4.617 -4.461)" fill="#cecece"/>
              </g>
            </g>
          </g>
          <g id="Grupo_80810" data-name="Grupo 80810" transform="translate(61.534 6.042)" style="mix-blend-mode: multiply;isolation: isolate">
            <g id="Grupo_80809" data-name="Grupo 80809">
              <g id="Grupo_80808" data-name="Grupo 80808" clip-path="url(#clip-path-4)">
                <path id="Trazado_115393" data-name="Trazado 115393" d="M45.431,13V80.3L76.2,71.756V4.46Z" transform="translate(-45.431 -4.461)" fill="#cecece"/>
              </g>
            </g>
          </g>
        </g>
      </g>
    </g>
  </g>
</svg>
